<svg width="101" height="80" viewBox="0 0 101 80" fill="none" xmlns="http://www.w3.org/2000/svg">
<path d="M2.22547 0.261819V6.02186H8.46552V0.261819H10.691V14.8147H8.46552V8.11643H2.22547V14.8147H0V0.261819H2.22547Z" fill="#FAFAFA"/>
<path d="M21.2814 0C25.6451 0 28.8524 3.27275 28.8524 7.54915C28.8524 11.8255 25.6451 15.0983 21.2814 15.0983C16.9177 15.0983 13.7104 11.8255 13.7104 7.54915C13.7104 3.27275 16.9177 0 21.2814 0ZM21.2814 13.0474C24.4014 13.0474 26.6269 10.7783 26.6269 7.54915C26.6269 4.32003 24.4014 2.05092 21.2814 2.05092C18.1614 2.05092 15.9359 4.32003 15.9359 7.54915C15.9359 10.7783 18.1614 13.0474 21.2814 13.0474Z" fill="#FAFAFA"/>
<path d="M31.8642 0.261819H34.0896V9.0328C34.0896 9.81826 34.1115 10.7783 34.5478 11.5419C34.9842 12.2837 35.966 13.0474 37.2533 13.0474C38.5406 13.0474 39.5224 12.2837 39.9588 11.5419C40.3951 10.7783 40.417 9.81826 40.417 9.0328V0.261819H42.6424V9.62189C42.6424 10.7783 42.4024 12.1746 41.2897 13.3965C40.5261 14.2256 39.2388 15.0983 37.2533 15.0983C35.2678 15.0983 33.9805 14.2256 33.2169 13.3965C32.1042 12.1746 31.8642 10.7783 31.8642 9.62189V0.261819Z" fill="#FAFAFA"/>
<path d="M54.8672 2.44366L53.0781 3.49094C52.9472 3.16366 52.7508 2.8582 52.4235 2.57456C51.9653 2.20365 51.4853 2.05092 50.8526 2.05092C49.4999 2.05092 48.8017 2.8582 48.8017 3.79639C48.8017 4.23276 48.9544 4.9964 50.3726 5.56368L51.8344 6.15278C54.5181 7.24369 55.2599 8.77098 55.2599 10.4292C55.2599 13.2001 53.2963 15.0983 50.569 15.0983C48.889 15.0983 47.8853 14.4656 47.1435 13.6365C46.358 12.7637 46.0089 11.8037 45.9217 10.8001L48.1253 10.3201C48.1253 11.0401 48.3871 11.7165 48.7362 12.1746C49.1508 12.6983 49.7617 13.0474 50.6344 13.0474C51.9872 13.0474 53.0344 12.0655 53.0344 10.6037C53.0344 9.12007 51.8999 8.50916 50.9399 8.11643L49.5435 7.52733C48.3435 7.02551 46.5762 6.02186 46.5762 3.84003C46.5762 1.87638 48.1035 0 50.8308 0C52.4017 0 53.2963 0.589096 53.7545 0.981826C54.1472 1.33092 54.5617 1.83274 54.8672 2.44366Z" fill="#FAFAFA"/>
<path d="M66.7282 0.261819V2.35638H60.9245V6.04368H66.5536V8.13825H60.9245V12.7201H66.7282V14.8147H58.699V0.261819H66.7282Z" fill="#FAFAFA"/>
<path d="M82.8825 0C87.2461 0 90.4534 3.27275 90.4534 7.54915C90.4534 11.8255 87.2461 15.0983 82.8825 15.0983C78.5188 15.0983 75.3115 11.8255 75.3115 7.54915C75.3115 3.27275 78.5188 0 82.8825 0ZM82.8825 13.0474C86.0025 13.0474 88.228 10.7783 88.228 7.54915C88.228 4.32003 86.0025 2.05092 82.8825 2.05092C79.7624 2.05092 77.537 4.32003 77.537 7.54915C77.537 10.7783 79.7624 13.0474 82.8825 13.0474Z" fill="#FAFAFA"/>
<path d="M100.433 0.261819V2.35638H95.3711V6.04368H100.258V8.13825H95.3711V14.8147H93.1456V0.261819H100.433Z" fill="#FAFAFA"/>
<path d="M27.4528 78.9371H23.2933L5.32463 52.7328H3.66086V78.9371H0.000573122V23.4505H7.98666C12.2293 23.4505 16.0559 23.7832 19.7162 26.2789C24.042 29.2737 25.4562 33.849 25.4562 38.1748C25.4562 43.6652 23.0438 49.3221 16.1391 51.6513C13.2275 52.6496 10.5655 52.7328 9.31768 52.7328L27.4528 78.9371ZM3.66086 26.778V49.4053H8.98492C16.8878 49.4053 21.6296 45.2458 21.6296 38.0916C21.6296 32.518 18.8843 29.6064 16.7214 28.4418C14.3922 27.1107 10.3991 26.778 8.23623 26.778H3.66086Z" fill="#FAFAFA"/>
<path d="M57.9855 22.7018C74.2073 22.7018 86.7687 35.3464 86.7687 51.3186C86.7687 67.2908 74.2073 79.8522 57.9855 79.8522C41.6806 79.8522 29.2023 67.2908 29.2023 51.3186C29.2023 35.3464 41.7638 22.7018 57.9855 22.7018ZM57.9855 76.5247C72.2939 76.5247 82.942 65.4606 82.942 51.3186C82.942 37.0934 72.2939 26.0293 57.9855 26.0293C43.6771 26.0293 33.029 37.0934 33.029 51.3186C33.029 65.4606 43.6771 76.5247 57.9855 76.5247Z" fill="#FAFAFA"/>
<path d="M92.9084 23.4505H96.5687V78.9371H92.9084V23.4505Z" fill="#FAFAFA"/>
</svg>
